<?xml version="1.0" encoding="UTF-8" standalone="no"?>
<svg xmlns="http://www.w3.org/2000/svg" viewBox="0 0 128 128" fill="white">
  <path d="M91.94 24.1c10.93 0 17.25-10.3 11.32-18.31a7.56 7.56 0 00-6.46-3.23c-5.65 0-8.2 5.68-8.2 5.68h-1.72V2.7H72.14v5.65c-2.53 0-4.53 2-4.53 4.53s2 4.53 4.53 4.53v4.36C57.71 30.51 60.85 41.87 61 42.3c.39 1.08 1.4 1.8 2.54 1.8 1.13 0 2.16-.72 2.55-1.8.16-.43 3.29-11.79-11.08-20.52v-4.36h5.01c0-1.71-1.39-3.09-3.09-3.09H55.9v-5.9H41.16v5.71h-4.13c0-1.71-1.39-3.09-3.09-3.09h-1.03v-5.9H18.17v5.71h-4.13c0-1.71-1.39-3.09-3.09-3.09h-1.02v5.07c0 3.96 3.2 7.16 7.16 7.16h.95c3.96 0 7.16-3.2 7.16-7.16v-2H36v2c0 3.96 3.2 7.16 7.16 7.16h.95c3.96 0 7.16-3.2 7.16-7.16v-2h6.04c-6.58 6.17-8.19 13.86-8.19 13.86h57.19S102.88 24.1 91.94 24.1z"/>
  <path d="M24.43 53.88c-8.24 2.74-13.59 10.5-13.59 19.34v29.36h-3.03a3.05 3.05 0 000 6.09h45.66v12.05a3.28 3.28 0 003.28 3.28h13.11a3.28 3.28 0 003.28-3.28V97.31l5.01 11.36H104.18l5.01-11.36v12.05c0 5.23 4.24 9.46 9.46 9.46h.91c5.23 0 9.46-4.24 9.46-9.46V77.1c0-12.79-10.44-23.23-23.23-23.23H24.43z"/>
  <path d="M46.85 41.93h-3.28v6.55H35.1c-5.14 0-9.46 3.67-10.4 8.53h68.24c-1.92-9.25-11.06-15.08-20.69-15.08H46.85z"/>
</svg>
